<?xml version="1.0" encoding="UTF-8"?>
<svg version="1.1" xmlns="http://www.w3.org/2000/svg" width="104" height="66">
<path d="M0 0 C0.66 0.33 1.32 0.66 2 1 C2 1.33 2 1.66 2 2 C2.66 2 3.32 2 4 2 C4.495 2.99 4.495 2.99 5 4 C5.66 4.33 6.32 4.66 7 5 C6.566875 5.48210938 6.13375 5.96421875 5.6875 6.4609375 C5.130625 7.09257813 4.57375 7.72421875 4 8.375 C3.443125 9.00148438 2.88625 9.62796875 2.3125 10.2734375 C0.79827513 11.90389833 0.79827513 11.90389833 1 14 C2.59036585 15.53017361 2.59036585 15.53017361 4.625 17.125 C10.92741756 22.51110863 15.290752 27.79560959 17 36 C16.01 36 15.02 36 14 36 C13.54560547 35.02160156 13.54560547 35.02160156 13.08203125 34.0234375 C9.95782589 27.50586448 6.61263257 20.62628237 0 17 C-2.20800528 17.21717352 -2.20800528 17.21717352 -4 18 C-4 18.66 -4 19.32 -4 20 C-2.36999937 21.3025945 -2.36999937 21.3025945 -0.3125 22.625 C3.99526479 25.73148757 6.74714893 29.19102944 9 34 C9 34.66 9 35.32 9 36 C8.34 36 7.68 36 7 36 C5.66796875 34.171875 5.66796875 34.171875 4.1875 31.75 C1.04694021 26.90608574 -1.73429856 24.01725371 -7.0625 21.625 C-9.94292663 20.73917114 -9.94292663 20.73917114 -12.375 21.875 C-12.91125 22.24625 -13.4475 22.6175 -14 23 C-12.49974419 26.66820789 -10.37740369 28.64737116 -7.375 31.1875 C-5.90124882 32.44042096 -4.43838791 33.70663474 -3 35 C-3 35.33 -3 35.66 -3 36 C-6.10558674 36.43478214 -8.90961797 36.59797636 -12 36 C-14.4998841 33.9849419 -16.25532743 31.68200647 -18 29 C-20.88157982 30.29822754 -22.15186125 31.17238304 -24.3125 33.625 C-27 36 -27 36 -30.8125 36.3125 C-32.3903125 36.1578125 -32.3903125 36.1578125 -34 36 C-30.50640535 32.40365256 -26.88901869 29.16548033 -23 26 C-24.32 24.35 -25.64 22.7 -27 21 C-32.36656859 21.63136101 -36.16725901 23.84759488 -39.6796875 27.97265625 C-41.64814697 30.56744374 -43.54133776 33.08267551 -45 36 C-45.66 36 -46.32 36 -47 36 C-44.69852757 28.63528823 -39.76532761 22.60817473 -33 19 C-32.01 19 -31.02 19 -30 19 C-31.32 17.68 -32.64 16.36 -34 15 C-43.02352959 20.29380403 -48.32580714 26.20215238 -52 36 C-52.99 36 -53.98 36 -55 36 C-52.74956985 26.69822204 -47.41306723 19.74901316 -39.4375 14.375 C-38.2309375 13.694375 -38.2309375 13.694375 -37 13 C-38.17366316 10.11919043 -39.35092741 8.65742801 -41.625 6.4375 C-44 4 -44 4 -44 1 C-40.82433611 0.52365042 -38.70040926 0.57263164 -35.92578125 2.265625 C-33.91073599 3.80018812 -31.95542632 5.39062994 -30 7 C-24.85455641 10.43029573 -18.06979712 9.34576831 -12.09375 8.50927734 C-7.03835233 7.27961788 -3.44393749 3.7147139 0 0 Z M-24 11 C-24 11.99 -24 12.98 -24 14 C-21.23776722 16.76223278 -18.79293383 16.57856291 -15 17 C-14.67 15.02 -14.34 13.04 -14 11 C-17.3 11 -20.6 11 -24 11 Z M-19 18 C-18.67 18.99 -18.34 19.98 -18 21 C-17.01 20.01 -16.02 19.02 -15 18 C-16.32 18 -17.64 18 -19 18 Z " fill="#FF5600" transform="translate(71,0)"/>
<path d="M0 0 C1.32 0 2.64 0 4 0 C4 4.95 4 9.9 4 15 C-0.33333333 15 -4.66666667 15 -9 15 C-10.19625 15.04125 -11.3925 15.0825 -12.625 15.125 C-16 15 -16 15 -18 13 C-18.66 13.66 -19.32 14.32 -20 15 C-23.5 15.3125 -23.5 15.3125 -27 15 C-29 12 -29 12 -29 8 C-30.98 8 -32.96 8 -35 8 C-35 10.31 -35 12.62 -35 15 C-36.32 15 -37.64 15 -39 15 C-39 10.38 -39 5.76 -39 1 C-35.37 1 -31.74 1 -28 1 C-28 1.66 -28 2.32 -28 3 C-30.31 3 -32.62 3 -35 3 C-35 3.99 -35 4.98 -35 6 C-32.08347826 6.16681109 -32.08347826 6.16681109 -29 6 C-28.34 5.34 -27.68 4.68 -27 4 C-23.5 3.75 -23.5 3.75 -20 4 C-19.34 4.66 -18.68 5.32 -18 6 C-17.34 5.34 -16.68 4.68 -16 4 C-12.625 3.875 -12.625 3.875 -9 4 C-7.68 4 -6.36 4 -5 4 C-3.33333333 4 -1.66666667 4 0 4 C0 2.68 0 1.36 0 0 Z M-24 6 C-24.67958603 8.39719432 -24.67958603 8.39719432 -25 11 C-24.34 11.66 -23.68 12.32 -23 13 C-21.70366379 11.93354885 -21.70366379 11.93354885 -21.9375 9.4375 C-21.958125 8.633125 -21.97875 7.82875 -22 7 C-22.66 6.67 -23.32 6.34 -24 6 Z M-13 6 C-13.67958603 8.39719432 -13.67958603 8.39719432 -14 11 C-13.34 11.66 -12.68 12.32 -12 13 C-10.70366379 11.93354885 -10.70366379 11.93354885 -10.9375 9.4375 C-10.958125 8.633125 -10.97875 7.82875 -11 7 C-11.66 6.67 -12.32 6.34 -13 6 Z M-2 6 C-2.33 7.98 -2.66 9.96 -3 12 C-2.01 12 -1.02 12 0 12 C0 10.35 0 8.7 0 7 C-0.66 6.67 -1.32 6.34 -2 6 Z " fill="#FF5600" transform="translate(84,40)"/>
<path d="M0 0 C1.32 0 2.64 0 4 0 C4 4.95 4 9.9 4 15 C1.36 15 -1.28 15 -4 15 C-4.33 14.01 -4.66 13.02 -5 12 C-6.32 12 -7.64 12 -9 12 C-9 12.99 -9 13.98 -9 15 C-10.65 15 -12.3 15 -14 15 C-13.35799564 12.85301798 -12.71129254 10.70744047 -12.0625 8.5625 C-11.70285156 7.36753906 -11.34320312 6.17257813 -10.97265625 4.94140625 C-10 2 -10 2 -9 1 C-7.33382885 0.95936168 -5.66611905 0.957279 -4 1 C-3.01 3.97 -2.02 6.94 -1 10 C-0.67 6.7 -0.34 3.4 0 0 Z M-7 8 C-7.33 8.66 -7.66 9.32 -8 10 C-7.34 10 -6.68 10 -6 10 C-6.33 9.34 -6.66 8.68 -7 8 Z " fill="#FF5600" transform="translate(29,40)"/>
<path d="M0 0 C4.29 0 8.58 0 13 0 C12.70703125 2.18098958 12.4140625 4.36197917 12.12109375 6.54296875 C11.87775888 9.44676607 11.87775888 9.44676607 13 14 C8.71 14 4.42 14 0 14 C0 9.38 0 4.76 0 0 Z " fill="#FF5600" transform="translate(91,41)"/>
<path d="M0 0 C4.29 0 8.58 0 13 0 C13 4.62 13 9.24 13 14 C8.71 14 4.42 14 0 14 C0.29296875 11.81901042 0.5859375 9.63802083 0.87890625 7.45703125 C1.12224112 4.55323393 1.12224112 4.55323393 0 0 Z " fill="#FF5600" transform="translate(0,41)"/>
<path d="M0 0 C0.33 0.66 0.66 1.32 1 2 C2.32 2 3.64 2 5 2 C5.66 1.34 6.32 0.68 7 0 C7.598125 0.309375 8.19625 0.61875 8.8125 0.9375 C11.08956772 2.10209704 11.08956772 2.10209704 14 3 C13.67 4.65 13.34 6.3 13 8 C5.74 8 -1.52 8 -9 8 C-9 5.69 -9 3.38 -9 1 C-6.33333333 1 -3.66666667 1 -1 1 C-0.67 0.67 -0.34 0.34 0 0 Z M-7 3 C-6 6 -6 6 -6 6 Z " fill="#FF5600" transform="translate(63,58)"/>
<path d="M0 0 C0.66 0 1.32 0 2 0 C2 2.64 2 5.28 2 8 C1.236875 7.814375 0.47375 7.62875 -0.3125 7.4375 C-3.08967375 6.77180827 -3.08967375 6.77180827 -6 8 C-8.00875442 7.72428861 -10.01178687 7.39764263 -12 7 C-12 6.34 -12 5.68 -12 5 C-12.66 5 -13.32 5 -14 5 C-14.33 5.99 -14.66 6.98 -15 8 C-15.33 8 -15.66 8 -16 8 C-16 5.69 -16 3.38 -16 1 C-10.72 1.33 -5.44 1.66 0 2 C0 1.34 0 0.68 0 0 Z M-10 4 C-9 6 -9 6 -9 6 Z M-1 4 C0 6 0 6 0 6 Z " fill="#FF5600" transform="translate(43,58)"/>
<path d="M0 0 C1.65 0 3.3 0 5 0 C5 4.95 5 9.9 5 15 C3.35 15 1.7 15 0 15 C0 10.05 0 5.1 0 0 Z " fill="#FF5600" transform="translate(34,40)"/>
<path d="M0 0 C0.99 0 1.98 0 3 0 C3.33 2.31 3.66 4.62 4 7 C2.35 6.67 0.7 6.34 -1 6 C-1.042721 4.33388095 -1.04063832 2.66617115 -1 1 C-0.67 0.67 -0.34 0.34 0 0 Z " fill="#FF5600" transform="translate(48,59)"/>
</svg>
